<svg xmlns="http://www.w3.org/2000/svg" width="96" height="96" viewBox="0 0 96 96" fill="none" role="img" aria-label="Direito de Família e Sucessões">
  <path d="M24 78v-18a18 18 0 0 1 18-18h12a18 18 0 0 1 18 18v18" stroke="#0F2B4D" stroke-width="4" stroke-linecap="round"/>
  <path d="M36 36a10 10 0 1 0 0-20 10 10 0 0 0 0 20Z" stroke="#0F2B4D" stroke-width="4"/>
  <path d="M60 36a10 10 0 1 0 0-20 10 10 0 0 0 0 20Z" stroke="#0F2B4D" stroke-width="4"/>
  <path d="M48 44c4-5 10-8 16-8" stroke="#0F2B4D" stroke-width="4" stroke-linecap="round"/>
  <path d="M48 44c-4-5-10-8-16-8" stroke="#0F2B4D" stroke-width="4" stroke-linecap="round"/>
</svg>
